PathFileType	4	(X/Y/Z)	T1_P1_Vision_Movement_3_0-659.trc
DataRate	CameraRate	NumFrames	NumMarkers	Units	OrigDataRate	OrigDataStartFrame	OrigNumFrames
60	60	7	27	m	60	576	659
Frame#	Time	RHip			RKnee			RAnkle			RBigToe			RSmallToe			RHeel			LHip			LKnee			LAnkle			LBigToe			LSmallToe			LHeel			Neck			Head			Nose			RShoulder			RElbow			RWrist			RThumb			RIndex			RPinky			LShoulder			LElbow			LWrist			LThumb			LIndex			LPinky		
		X1	Y1	Z1	X2	Y2	Z2	X3	Y3	Z3	X4	Y4	Z4	X5	Y5	Z5	X6	Y6	Z6	X7	Y7	Z7	X8	Y8	Z8	X9	Y9	Z9	X10	Y10	Z10	X11	Y11	Z11	X12	Y12	Z12	X13	Y13	Z13	X14	Y14	Z14	X15	Y15	Z15	X16	Y16	Z16	X17	Y17	Z17	X18	Y18	Z18	X19	Y19	Z19	X20	Y20	Z20	X21	Y21	Z21	X22	Y22	Z22	X23	Y23	Z23	X24	Y24	Z24	X25	Y25	Z25	X26	Y26	Z26	X27	Y27	Z27
577	9.616666666666667	-113.61406967798725	3970.691863202219	-637.6216587798884	247.36257809425013	4075.7720513649147	-651.8541336857265	598.2626320212829	4263.655874866144	-691.179190783631	690.8135970834265	4202.663127836354	-651.0667093835309	675.5062859287914	4146.3481378161205	-697.0780729816552	636.3373190794692	4313.358595527052	-698.6935780085505	-160.40243352698778	4055.5853395855775	-479.895465189627	205.7849093520991	4192.548553023365	-496.9652812357858	560.9692494591409	4335.075063330176	-514.5044622153694	638.7214635368541	4234.41396410892	-404.7503201554249	611.5506245361895	4279.974784105438	-378.9170175037173	606.795414479551	4374.718819959748	-539.1788865568346	-706.1213351464005	3822.03714687509	-586.8200549297234	-933.5962244790189	3636.299297335763	-505.8897164386671	-778.8091249185205	3627.7447794078676	-446.15127670197944	-591.2777070463969	3788.9224489465755	-722.0070820343567	-327.70516329222994	3849.3550138062355	-746.8160811370474	-58.62002301932019	3886.1535121459283	-724.4862297902398	55.87513489285524	3835.6727052516862	-596.6762653267691	74.26792479075415	3841.6565734912924	-603.1159705920207	76.70332833575472	3931.557365444108	-723.8281160596564	-659.9862679266419	3975.479816054696	-467.7222846708817	-422.8987246174622	4118.8841799721595	-435.6486667896593	-175.16694841991537	4119.3519393093065	-363.78942287546124	-56.83331770709976	4136.5978282252245	-378.8224797894931	-13.65205152182958	4159.798600062185	-354.14834610604726	-45.81196329248216	4180.687503975073	-335.36354495497903
578	9.633333333333333	-114.40429453587868	3976.0405579798553	-640.4922138741756	246.624606599916	4083.2670706407916	-656.3506013456714	596.3466285407402	4262.304396400725	-690.4324084454432	690.1742730312197	4204.2169060396645	-651.3617823886997	673.9052649634797	4145.114190422693	-697.4911019024885	634.2763323913127	4311.965418900397	-698.2395728907421	-161.10290675585452	4058.0287768291764	-481.98889957536534	204.72933887885452	4191.666588753842	-495.92605786561705	559.7632700322894	4334.333301610206	-514.5801136333785	638.9224327627951	4229.208196012433	-403.44038909921704	610.7019084477384	4279.349433685259	-378.5739532088826	606.7311244922944	4374.6604718255585	-539.1651451347005	-705.3205958951345	3820.217119478373	-585.390118926958	-933.0203786629152	3636.4965474842697	-505.93344965909785	-774.6362223737328	3622.25205598824	-444.6203614151642	-591.8262429339914	3786.649257660168	-720.2905831903162	-327.7089477250044	3849.0619431054492	-746.7025328188718	-55.96249893582045	3893.091274765815	-731.7260338492408	55.94595090124537	3835.7618896906542	-596.7102739965384	74.53349393610996	3841.7115187945506	-604.6947640852954	77.19759767803399	3931.520843713021	-725.3383609757327	-660.6678323436829	3973.2762319891926	-468.93259164215556	-422.7421707779389	4118.91112036512	-435.646253951773	-175.81118570049512	4119.323203161424	-363.81376627744885	-56.72063480909166	4136.527537836986	-378.72719772500795	-12.848994719298409	4160.266985049923	-353.5078608821361	-46.09432409621491	4180.650967865769	-335.2611421166263
579	9.65	-114.81076808789237	3975.289554445346	-641.2443471215672	245.68304785405405	4088.370881486263	-661.3655267230579	595.1048143617954	4263.237164377009	-691.315335699055	690.3995359947313	4205.045699132288	-652.923445242213	675.4627973003608	4152.777677651279	-702.5531656878791	634.1392136466688	4311.459165142322	-697.7804044724578	-160.6209288392383	4055.469899329228	-480.7953339021929	204.66175695422947	4191.146672128465	-495.63986208510505	559.3346042751425	4334.1425695511125	-514.559768555209	639.4168029061141	4226.269708468642	-401.4948778117658	610.1030479390258	4278.863268449814	-378.30263993308506	607.5506035223439	4375.109945139443	-539.0524346997546	-705.4393072197939	3821.640842421208	-587.2939612067921	-932.4448343221419	3634.7008925614764	-504.4212889846839	-771.0122702247394	3621.702193128868	-444.30203278238696	-591.1358217636993	3786.339462502604	-719.6486699520094	-327.49936788649916	3846.556948863574	-745.886869166613	-53.92811234708539	3898.760571183076	-737.2468912330306	55.91256485993868	3836.102801794388	-596.8280289651252	74.59474741414859	3841.892932739487	-605.4665353811773	78.09341994482592	3932.073133136311	-726.0539478692667	-660.505005704278	3972.1279615648577	-469.2063347116775	-422.00300800624177	4119.164986314566	-435.68871378408096	-175.7654897886192	4119.332366876592	-363.7918001577713	-56.65659790449959	4136.831394643792	-378.81486972348387	-12.73786764861225	4159.8139824430355	-353.40867986636204	-46.8834735368322	4180.815153603035	-335.2944576648897
580	9.666666666666666	-114.79439621941268	3970.7615704243244	-640.3128402474911	245.35250903417764	4089.933843061385	-664.5786473091163	596.235065673575	4268.814367066474	-695.3519929392005	692.520968950647	4207.960224960932	-656.7801019454208	678.9261972674087	4164.992787661933	-709.3310738746613	636.26449638597	4312.460488865685	-697.8550364790033	-159.09796407727134	4051.391820482332	-479.00329235866644	205.83905784999374	4191.168414957928	-496.1780888150841	559.9959627151335	4334.58532102919	-514.426249876708	639.6885202347801	4224.247107714047	-397.95629471580537	609.9384476607119	4278.669140040835	-378.1902282183671	608.922278710021	4375.857766132396	-538.9164605511452	-706.1574688959422	3826.6349777835508	-592.7970033535591	-931.1304080961968	3630.312895501692	-500.73458913782605	-768.6133226507446	3625.43720235053	-445.09396185070307	-590.0580331116417	3787.507743561867	-719.9582441225435	-327.0404355527302	3841.4549507214347	-744.4101667164392	-53.697343179349744	3901.229973962447	-739.5202334564385	55.795650642086365	3836.4468318598883	-596.9668024179615	74.53634761004813	3842.6874573519453	-605.9696267162248	78.73397571229594	3932.6839438765996	-726.2291525097519	-661.0917543939213	3976.9147187512444	-469.9070449765454	-420.7190283558797	4119.545748238619	-435.71102726469417	-175.16274176108323	4119.408615894877	-363.774839051604	-56.59003089715098	4137.356179601335	-378.9509192499087	-12.741995574968003	4159.611287204928	-353.50199591041377	-47.84342534068064	4181.068819477596	-335.578929741453
581	9.683333333333334	-114.6348320306241	3967.401605084954	-639.3957609042152	246.1545089374275	4092.6148324031606	-666.3773079074072	600.0063122020119	4277.8578098185735	-701.5974297535165	696.2531145962478	4214.456714319422	-662.3690589112061	681.8055909180855	4175.979491982716	-714.8829312263549	638.9027295827109	4314.166020201269	-698.4434241721439	-157.12325938051697	4051.7821690809833	-480.19278450444807	207.2095737333286	4191.5079474522945	-497.2055010125963	561.1726249523376	4335.331976628766	-514.2799941572431	638.7302343705618	4219.097265864924	-392.96379480527634	609.9675808357304	4278.560320315864	-378.1558694880342	609.8286809894047	4376.355167350503	-538.8938027612951	-707.0924673616748	3833.3093053069583	-599.4278533424061	-929.1647168320683	3624.906080828957	-495.9952768779667	-767.353449724859	3630.712836783906	-446.27546919493716	-589.6617647313799	3789.757367518872	-721.6936388001858	-326.5212807725235	3836.1114263841905	-743.3692462145259	-55.09010331367914	3901.226154679366	-739.7204382968916	55.65569468814527	3836.4600718171696	-597.0264126750305	74.48138735757567	3844.7361517575823	-606.742900343444	78.96113548364629	3933.039926710557	-726.2468265441498	-662.3552296082029	3985.116770688368	-471.0861803590822	-419.9181977421625	4119.6514582686295	-435.6239061973413	-174.7127489073857	4119.504164449647	-363.8144390283741	-56.55391811988807	4137.808072256637	-379.0285159836338	-12.88524900588816	4159.446903601004	-353.4748701380741	-48.70727612088072	4181.2633292053615	-336.4044754124369
582	9.7	-114.55464366473394	3967.258682071419	-639.2891982132486	247.41853693203728	4096.540622118724	-667.3989606607021	605.080661233774	4286.08429997442	-707.0384249929841	700.0333174446962	4220.282191818272	-666.7202986700863	683.3441071088434	4182.567410032474	-718.0527952738391	640.1028592862226	4315.272981661705	-699.0972531209078	-155.68003771310504	4057.1361861186147	-483.8264753455426	207.35974627521676	4191.772685554345	-497.8259904070395	561.7362614735621	4335.686766186382	-514.2639545835904	637.0902320804728	4214.706729098567	-389.4894299108381	609.9922650149377	4278.457062617213	-378.1229041242163	609.5547877467584	4376.276776164825	-539.0621085759205	-707.8351548013245	3838.4963890132094	-603.3536481959765	-927.3827209795916	3621.137616838675	-492.39824815736523	-765.9794784206197	3633.5786586278214	-446.81743897703325	-589.6165110967257	3791.8739761320944	-724.9584988018756	-326.1874706747216	3833.7229323205725	-744.0810527437269	-57.09128755674172	3900.2039822850647	-739.3932868941032	55.542301181187554	3836.0784385817624	-596.9587255257717	74.42794028809534	3847.5586095882545	-607.3059616280161	78.82468925767242	3933.068369062438	-726.2715993163235	-663.0239189791159	3988.872719143675	-471.4926898927141	-420.63807578288663	4119.043865448709	-435.34354091513376	-174.73392363107413	4119.552969775694	-363.89986125304796	-56.717840706305466	4138.119681484743	-379.16223133491593	-13.772775216754072	4158.7063285068525	-353.3054041640702	-49.52681884140436	4181.264931974231	-337.8794874918444
583	9.716666666666669	-114.63036264381488	3970.4402860759865	-640.0873776181514	248.02910231303855	4095.37096406187	-666.7936493769711	609.3533548518403	4290.202390215482	-709.5801355917991	702.4189350262642	4218.621680009224	-667.2558266643504	684.2953167508905	4184.911066479002	-719.0749508752981	640.0285045341383	4315.569029647418	-699.4635644041107	-155.28095312915252	4062.312771718428	-486.70434293053825	206.1318941465708	4191.705030645185	-497.38676275939554	561.8478496299143	4335.4881224152505	-514.3292410823082	636.6387128835753	4218.04602735486	-390.4057841577763	609.9492640405907	4278.415423547979	-378.0705294676113	608.6324649698344	4375.937603367214	-539.30699571958	-708.2177361605868	3840.7513480918155	-603.5132954784965	-926.2167483885098	3619.4692726805974	-490.8231044665542	-763.5733756273407	3632.170834069633	-446.3273464174751	-588.7895903823304	3791.0645845233003	-728.1292411993377	-326.17609624589244	3836.154236146662	-746.970606765986	-59.144566151250956	3899.1037827686155	-739.217046657035	55.467920984709956	3836.260314055299	-597.0051624042154	74.23005497590715	3848.8365281827837	-606.2604679527876	78.24780023808921	3932.8053882413806	-726.295688734935	-662.336807037801	3983.9432133667915	-470.32737406178245	-422.145789289901	4117.955428744437	-434.9236591853337	-174.7329816368273	4119.559760124329	-363.9594980039444	-57.26880490623182	4138.7315228007665	-379.75202051195834	-15.345629793042962	4157.884363065661	-353.35730263406265	-50.20824742952922	4181.078807528563	-339.35890362205475
